<svg xmlns="http://www.w3.org/2000/svg" width="1460" height="1300" viewBox="0 0 1460 1300" role="img" aria-labelledby="title desc">
  <title id="title">Travel Agent Planner multi-agent architecture</title>
  <desc id="desc">Five prompt agents in Azure AI Foundry Agent Service, all guarded by one RAI policy: a manager agent on gpt-5.6-luna and four specialist agents on gpt-5-mini for the knowledge base, web search, weather and hotels. A Magentic workflow in the local client asks for the user name, calls every agent, runs the weather and hotel function tools against the Visual Crossing and Tavily APIs, detects the language of each question with Azure AI Language, stores the user profile, preferences and conversation history in Azure Cosmos DB and converts the final answer to speech with Azure AI Speech. Every local script reads its endpoints, names and keys from Azure Key Vault. Setup scripts deploy the Azure resources to Switzerland North, build the knowledge base and create the agents.</desc>

  <style>
    text { font-family: "Segoe UI", -apple-system, "Helvetica Neue", Arial, sans-serif; fill: #1F2328; }
    .mono { font-family: Consolas, Menlo, "DejaVu Sans Mono", monospace; }
    .h1 { font-size: 22px; font-weight: 700; }
    .sub { font-size: 13px; fill: #57606A; }
    .zone { font-size: 11.5px; font-weight: 700; letter-spacing: 1px; fill: #57606A; }
    .zone-az { fill: #0060AA; }
    .group { font-size: 13px; font-weight: 700; }
    .t { font-size: 12.5px; font-weight: 700; }
    .s { font-size: 11px; fill: #57606A; }
    .xs { font-size: 10.5px; fill: #57606A; }
    .c { text-anchor: middle; }
    .e { text-anchor: end; }
    .halo { paint-order: stroke; stroke: #FFFFFF; stroke-width: 4px; stroke-linejoin: round; }
    .box { fill: #FFFFFF; stroke: #D0D7DE; stroke-width: 1.2; }
    .run { fill: none; stroke: #1F2328; stroke-width: 1.6; }
    .setup { fill: none; stroke: #6E7781; stroke-width: 1.4; stroke-dasharray: 6 4; }
    .guard { fill: none; stroke: #D1242F; stroke-width: 1.6; stroke-dasharray: 2 3; }
    .badge { fill: #1F2328; }
    .badge-t { font-size: 11px; font-weight: 700; fill: #FFFFFF; text-anchor: middle; }
    .fn { fill: #EEFBF3; stroke: #1A7F37; }
    .row { fill: none; stroke-width: 1; stroke-dasharray: 4 3; }
    .svc { fill: #FFFFFF; stroke: #7AA7D9; stroke-width: 1.2; }
    .inner { fill: #F0F7FF; stroke: #0078D4; }
    .kv { fill: #FFFBEB; stroke: #BF8700; stroke-width: 1.4; }
  </style>

  <defs>
    <marker id="a-run" viewBox="0 0 10 10" refX="9" refY="5" markerWidth="7" markerHeight="7" orient="auto-start-reverse">
      <path d="M0,0 L10,5 L0,10 z" fill="#1F2328"/>
    </marker>
    <marker id="a-setup" viewBox="0 0 10 10" refX="9" refY="5" markerWidth="7" markerHeight="7" orient="auto-start-reverse">
      <path d="M0,0 L10,5 L0,10 z" fill="#6E7781"/>
    </marker>
    <marker id="a-guard" viewBox="0 0 10 10" refX="9" refY="5" markerWidth="7" markerHeight="7" orient="auto-start-reverse">
      <path d="M0,0 L10,5 L0,10 z" fill="#D1242F"/>
    </marker>
  </defs>

  <!-- Canvas -->
  <rect x="0" y="0" width="1460" height="1300" rx="16" fill="#FFFFFF"/>
  <text x="30" y="44" class="h1">Travel Agent Planner · Multi-agent architecture</text>
  <text x="30" y="68" class="sub">Five Azure AI Foundry prompt agents orchestrated by a local Magentic workflow · user memory in Cosmos DB · language detection with Azure AI Language · every setting and key in Key Vault</text>

  <!-- ============================ LEFT: local runtime ============================ -->
  <rect x="30" y="90" width="340" height="510" rx="12" fill="#F6F8FA" stroke="#D0D7DE"/>
  <text x="46" y="114" class="zone">LOCAL MACHINE · RUNTIME</text>

  <rect x="110" y="128" width="180" height="44" rx="22" class="box"/>
  <text x="200" y="155" class="t c">User (terminal)</text>

  <rect x="46" y="200" width="308" height="384" rx="10" class="box"/>
  <circle cx="64" cy="222" r="10" class="badge"/><text x="64" y="226" class="badge-t">4</text>
  <text x="82" y="227" class="t mono">agent_execution.py</text>
  <text x="62" y="250" class="s">Magentic workflow · Microsoft Agent Framework</text>
  <text x="62" y="268" class="s">MagenticBuilder · new workflow per user message</text>
  <text x="62" y="286" class="s">5 × FoundryAgent, one per server-side agent</text>
  <text x="62" y="312" class="t" style="font-size:11.5px">Local function tools (@tool)</text>
  <rect x="62" y="322" width="276" height="26" rx="13" class="fn"/>
  <text x="200" y="339" class="mono c" style="font-size:12px">get_forecast_weather</text>
  <rect x="62" y="354" width="276" height="26" rx="13" class="fn"/>
  <text x="200" y="371" class="mono c" style="font-size:12px">search_for_hotels</text>
  <text x="62" y="404" class="s">middleware: log_tool_calls (prints every call)</text>
  <text x="62" y="432" class="t" style="font-size:11.5px">User, memory and settings</text>
  <text x="62" y="452" class="s">start: asks for the user name → user id</text>
  <text x="62" y="474" class="s" style="fill:#1F2328">text_to_speech → outputs/audio_file.wav</text>
  <text x="62" y="494" class="s" style="fill:#1F2328">AzureNLPService: language of the question</text>
  <text x="62" y="514" class="s" style="fill:#1F2328">CosmosMemory: profile · conversation_history</text>
  <text x="62" y="534" class="s" style="fill:#1F2328">SecretManager: endpoints &amp; keys (Key Vault)</text>
  <text x="62" y="562" class="xs mono">classes/*_services.py</text>

  <!-- User <-> agent_execution -->
  <path d="M200,172 V200" class="run" marker-start="url(#a-run)" marker-end="url(#a-run)"/>

  <!-- ============================ LEFT: external APIs ============================ -->
  <rect x="30" y="632" width="340" height="210" rx="12" fill="#FFF8EE" stroke="#E3A008"/>
  <text x="200" y="656" class="zone c" style="fill:#9A6700">EXTERNAL APIS</text>

  <rect x="46" y="672" width="146" height="154" rx="10" fill="#FFFFFF" stroke="#E3A008"/>
  <text x="119" y="698" class="t c">Visual Crossing</text>
  <text x="119" y="716" class="s c">Weather API</text>
  <text x="119" y="744" class="xs c">Timeline endpoint</text>
  <text x="119" y="760" class="xs c">metric · daily data</text>
  <text x="119" y="792" class="xs c">key from Key Vault</text>
  <text x="119" y="808" class="mono c" style="font-size:9px;fill:#57606A">VISUAL-CROSSING-API-KEY</text>

  <rect x="208" y="672" width="146" height="154" rx="10" fill="#FFFFFF" stroke="#E3A008"/>
  <text x="281" y="698" class="t c">Tavily</text>
  <text x="281" y="716" class="s c">Search API · advanced</text>
  <text x="281" y="744" class="xs mono c">booking.com</text>
  <text x="281" y="760" class="xs mono c">hotels.com</text>
  <text x="281" y="776" class="xs mono c">tripadvisor.com</text>
  <text x="281" y="792" class="xs c">key from Key Vault</text>
  <text x="281" y="808" class="mono c" style="font-size:9px;fill:#57606A">TAVILY-API-KEY</text>

  <!-- Local tools -> external APIs -->
  <path d="M119,584 V672" class="run" marker-end="url(#a-run)"/>
  <path d="M281,584 V672" class="run" marker-end="url(#a-run)"/>
  <text x="127" y="620" class="xs halo">HTTPS</text>
  <text x="289" y="620" class="xs halo">HTTPS</text>

  <!-- ============================ LEFT: legend ============================ -->
  <rect x="30" y="880" width="340" height="226" rx="12" fill="#F6F8FA" stroke="#D0D7DE"/>
  <text x="46" y="904" class="zone">LEGEND</text>
  <path d="M46,928 H94" class="run" marker-end="url(#a-run)"/>
  <text x="108" y="932" class="s" style="fill:#1F2328">runtime call (request ⇄ response)</text>
  <path d="M46,954 H94" class="setup" marker-end="url(#a-setup)"/>
  <text x="108" y="958" class="s" style="fill:#1F2328">setup / deployment (creates resources)</text>
  <path d="M46,980 H94" class="guard" marker-end="url(#a-guard)"/>
  <text x="108" y="984" class="s" style="fill:#1F2328">RAI guardrail filtering</text>
  <circle cx="56" cy="1006" r="10" class="badge"/><text x="56" y="1010" class="badge-t">1</text>
  <circle cx="88" cy="1006" r="10" class="badge"/><text x="88" y="1010" class="badge-t">4</text>
  <text x="72" y="1010" class="s c" style="fill:#1F2328">–</text>
  <text x="108" y="1010" class="s" style="fill:#1F2328">order in which the scripts are run</text>
  <rect x="46" y="1025" width="48" height="16" rx="8" class="fn"/>
  <text x="108" y="1037" class="s" style="fill:#1F2328">function tool (executed by the local client)</text>
  <rect x="46" y="1051" width="48" height="16" rx="4" fill="#0078D4" stroke="#005A9E"/>
  <text x="108" y="1063" class="s" style="fill:#1F2328">manager agent (plans and delegates)</text>
  <rect x="46" y="1077" width="48" height="16" rx="4" class="kv"/>
  <text x="108" y="1089" class="s" style="fill:#1F2328">Key Vault (all settings and keys)</text>

  <!-- ============================ MIDDLE: Azure ============================ -->
  <rect x="450" y="90" width="640" height="1180" rx="12" fill="#F0F7FF" stroke="#0078D4" stroke-width="1.5"/>
  <text x="466" y="114" class="zone zone-az">AZURE RESOURCE GROUP · SWITZERLAND NORTH</text>

  <!-- Foundry project -->
  <rect x="466" y="128" width="608" height="536" rx="10" fill="#F8F5FF" stroke="#8250DF" stroke-width="1.2"/>
  <text x="482" y="150" class="group" style="fill:#6639BA">Azure AI Foundry · project</text>

  <!-- RAI policy -->
  <rect x="650" y="160" width="240" height="52" rx="10" fill="#FFF1F0" stroke="#D1242F"/>
  <text x="770" y="182" class="t c" style="fill:#A40E26">RAI policy: StrictGuardrail</text>
  <text x="770" y="200" class="xs c">attached to all five agents</text>

  <!-- Agent group -->
  <rect x="482" y="246" width="576" height="306" rx="10" fill="#FFFFFF" stroke="#8250DF"/>
  <text x="498" y="268" class="group" style="fill:#6639BA">Prompt agents <tspan class="s" style="font-weight:400">· Foundry Agent Service</tspan></text>
  <text x="498" y="285" class="xs">each agent is called by the local Magentic workflow · instructions from agents/*_config.yaml</text>

  <!-- Manager -->
  <rect x="498" y="296" width="544" height="66" rx="12" fill="#0078D4" stroke="#005A9E" stroke-width="1.5"/>
  <text x="770" y="320" class="c" style="font-size:17px;font-weight:700;fill:#FFFFFF">managerAgent</text>
  <text x="770" y="338" class="c" style="font-size:11.5px;fill:#FFFFFF">plans the task · picks the next agent · writes the final answer</text>
  <text x="770" y="354" class="c" style="font-size:10.5px;fill:#DDEEFF">model: gpt-5.6-luna · no tools</text>

  <!-- Specialists with function tools -->
  <rect x="498" y="374" width="544" height="80" rx="8" class="row" stroke="#1A7F37"/>
  <text x="510" y="391" class="xs" style="fill:#1A7F37">specialists with function tools · the tool runs on the local client</text>
  <rect x="510" y="398" width="254" height="46" rx="10" class="fn"/>
  <text x="637" y="417" class="t c">weatherAgent <tspan class="s" style="font-weight:400">· gpt-5-mini</tspan></text>
  <text x="637" y="434" class="mono c" style="font-size:10.5px">get_forecast_weather</text>
  <rect x="776" y="398" width="254" height="46" rx="10" class="fn"/>
  <text x="903" y="417" class="t c">hotelAgent <tspan class="s" style="font-weight:400">· gpt-5-mini</tspan></text>
  <text x="903" y="434" class="mono c" style="font-size:10.5px">search_for_hotels</text>

  <!-- Specialists with server-side tools -->
  <rect x="498" y="462" width="544" height="80" rx="8" class="row" stroke="#6E7781"/>
  <text x="510" y="479" class="xs">specialists with server-side tools · the tool runs inside Foundry</text>
  <rect x="510" y="486" width="254" height="46" rx="10" fill="#F3EEFF" stroke="#8250DF"/>
  <text x="637" y="505" class="t c">ragDataAgent <tspan class="s" style="font-weight:400">· gpt-5-mini</tspan></text>
  <text x="637" y="522" class="mono c" style="font-size:10.5px">knowledge_base_retrieve · MCP</text>
  <rect x="776" y="486" width="254" height="46" rx="10" fill="#EAF6F9" stroke="#1B7C9A"/>
  <text x="903" y="505" class="t c">webDataAgent <tspan class="s" style="font-weight:400">· gpt-5-mini</tspan></text>
  <text x="903" y="522" class="mono c" style="font-size:10.5px">web_search · fallback only</text>

  <!-- Project connection -->
  <rect x="510" y="582" width="254" height="56" rx="10" fill="#FFFFFF" stroke="#8250DF"/>
  <text x="637" y="605" class="t mono c" style="font-size:12px">travel-guide-kb-mcp</text>
  <text x="637" y="624" class="xs c">RemoteTool connection · Search query key</text>

  <!-- Model deployments -->
  <rect x="800" y="566" width="258" height="86" rx="10" class="box"/>
  <text x="929" y="587" class="t c">Model deployments</text>
  <text x="816" y="607" class="mono" style="font-size:10.5px">gpt-5.6-luna</text>
  <text x="1042" y="607" class="xs e">manager</text>
  <text x="816" y="624" class="mono" style="font-size:10.5px">gpt-5-mini</text>
  <text x="1042" y="624" class="xs e">specialists · AI Search</text>
  <text x="816" y="641" class="mono" style="font-size:10.5px">text-embedding-3-small</text>
  <text x="1042" y="641" class="xs e">AI Search</text>

  <!-- Azure AI Search -->
  <rect x="466" y="682" width="608" height="176" rx="10" class="svc"/>
  <text x="482" y="704" class="group" style="fill:#0060AA">Azure AI Search <tspan class="s" style="font-weight:400">· free tier</tspan></text>

  <rect x="510" y="722" width="254" height="58" rx="10" class="inner"/>
  <text x="637" y="746" class="t mono c" style="font-size:12px">travel-guide-kb</text>
  <text x="637" y="766" class="xs c">knowledge base · extractive data</text>
  <text x="637" y="806" class="xs c">agentic retrieval · semantic ranker</text>

  <rect x="829" y="722" width="148" height="124" rx="10" class="inner"/>
  <text x="903" y="746" class="t mono c" style="font-size:11.5px">travel-guide-ks</text>
  <text x="903" y="762" class="xs c">knowledge source</text>
  <text x="903" y="788" class="xs c" style="font-style:italic">auto-generated:</text>
  <text x="903" y="806" class="xs c" style="fill:#1F2328">data source · skillset</text>
  <text x="903" y="824" class="xs c" style="fill:#1F2328">index · indexer</text>

  <!-- Azure AI Speech -->
  <rect x="466" y="876" width="250" height="124" rx="10" class="svc"/>
  <text x="482" y="898" class="group" style="fill:#0060AA">Azure AI Speech <tspan class="s" style="font-weight:400">· free tier (F0)</tspan></text>
  <text x="482" y="926" class="s" style="fill:#1F2328">text-to-speech of the final answer</text>
  <text x="482" y="946" class="xs">voice: en-US-AvaMultilingualNeural</text>
  <text x="482" y="982" class="mono" style="font-size:9px;fill:#57606A">SPEECH-KEY · SPEECH-REGION</text>

  <!-- Storage -->
  <rect x="732" y="876" width="342" height="124" rx="10" class="svc"/>
  <text x="748" y="898" class="group" style="fill:#0060AA">Storage account</text>
  <rect x="748" y="912" width="310" height="74" rx="10" class="inner"/>
  <text x="903" y="934" class="t c">blob container: <tspan class="mono">travel-guide</tspan></text>
  <text x="903" y="954" class="mono c" style="font-size:11px">world_city_travel_guide.md</text>
  <text x="903" y="972" class="xs c">182 cities · copied from inputs/</text>

  <!-- Azure AI Language -->
  <rect x="466" y="1018" width="250" height="124" rx="10" class="svc"/>
  <text x="482" y="1040" class="group" style="fill:#0060AA">Azure AI Language <tspan class="s" style="font-weight:400">· free tier (F0)</tspan></text>
  <text x="482" y="1066" class="s" style="fill:#1F2328">detects the language of each question</text>
  <text x="482" y="1086" class="xs">→ preferences.language in Cosmos DB</text>
  <text x="482" y="1124" class="mono" style="font-size:9px;fill:#57606A">LANGUAGE-ENDPOINT · LANGUAGE-KEY</text>

  <!-- Azure Cosmos DB -->
  <rect x="732" y="1018" width="342" height="124" rx="10" class="svc"/>
  <text x="748" y="1040" class="group" style="fill:#0060AA">Azure Cosmos DB <tspan class="s" style="font-weight:400">· free tier</tspan></text>
  <rect x="748" y="1052" width="310" height="78" rx="10" class="inner"/>
  <text x="903" y="1072" class="t c">container · partition key <tspan class="mono">/userId</tspan></text>
  <text x="903" y="1092" class="xs c" style="fill:#1F2328">one profile per user: name · role · preferences</text>
  <text x="903" y="1110" class="xs c" style="fill:#1F2328">conversation_history (fine-tuning) · TTL 90 days</text>

  <!-- Azure Key Vault -->
  <rect x="466" y="1170" width="608" height="84" rx="10" class="kv"/>
  <text x="482" y="1192" class="group" style="fill:#7D4E00">Azure Key Vault <tspan class="s" style="font-weight:400">· Azure RBAC · 25 secrets</tspan></text>
  <text x="482" y="1212" class="s" style="fill:#1F2328">every local script reads its endpoints, names and keys here (SecretManager · Entra ID)</text>
  <text x="482" y="1229" class="xs">written by resource_deployment.bicep · the only Bicep output is KEY_VAULT_URL</text>
  <text x="482" y="1246" class="mono" style="font-size:9px;fill:#57606A">PROJECT-ENDPOINT · SEARCH-ENDPOINT · SPEECH-KEY · LANGUAGE-KEY · COSMOSDB-PRIMARY-KEY · TAVILY-API-KEY · …</text>

  <!-- Runtime arrows (Azure side) -->
  <!-- workflow <-> every agent -->
  <path d="M354,329 H482" class="run" marker-start="url(#a-run)" marker-end="url(#a-run)"/>
  <text x="418" y="320" class="xs c halo" style="fill:#1F2328">agent run</text>
  <text x="418" y="348" class="xs c halo" style="fill:#1F2328">⇄ reply</text>
  <!-- function call / result -->
  <path d="M354,421 H498" class="run" marker-start="url(#a-run)" marker-end="url(#a-run)"/>
  <text x="418" y="412" class="xs c halo" style="fill:#1F2328">function call</text>
  <text x="418" y="440" class="xs c halo" style="fill:#1F2328">⇄ result</text>
  <!-- text-to-speech -->
  <path d="M354,470 H445 V938 H466" class="run" marker-end="url(#a-run)"/>
  <!-- language detection -->
  <path d="M354,490 H430 V1080 H466" class="run" marker-end="url(#a-run)"/>
  <!-- user profile, preferences and conversation history -->
  <path d="M354,510 H415 V1158 H903 V1142" class="run" marker-end="url(#a-run)"/>
  <!-- settings and keys -->
  <path d="M354,530 H398 V1212 H466" class="run" marker-end="url(#a-run)"/>
  <!-- knowledge base agent -> connection -> knowledge base -->
  <path d="M637,532 V582" class="run" marker-end="url(#a-run)"/>
  <path d="M637,638 V722" class="run" marker-end="url(#a-run)"/>
  <text x="647" y="677" class="xs halo">MCP endpoint</text>
  <!-- knowledge base -> knowledge source -->
  <path d="M764,751 H829" class="run" marker-end="url(#a-run)"/>
  <!-- AI Search -> models -->
  <path d="M1010,682 V652" class="run" marker-end="url(#a-run)"/>
  <text x="1062" y="702" class="xs e">ingestion &amp; query planning</text>
  <!-- indexer reads blob -->
  <path d="M903,912 V846" class="run" marker-end="url(#a-run)"/>
  <text x="913" y="871" class="xs halo">indexer reads blobs</text>
  <!-- guardrail -->
  <path d="M770,212 V246" class="guard" marker-end="url(#a-guard)"/>
  <text x="782" y="233" class="xs" style="fill:#A40E26">filters every prompt &amp; completion</text>

  <!-- ============================ RIGHT: setup & deployment ============================ -->
  <rect x="1130" y="90" width="300" height="1180" rx="12" fill="#F6F8FA" stroke="#D0D7DE"/>
  <text x="1146" y="114" class="zone">LOCAL MACHINE · SETUP &amp; DEPLOY</text>

  <rect x="1146" y="130" width="268" height="76" rx="10" class="box"/>
  <circle cx="1164" cy="152" r="10" class="badge"/><text x="1164" y="156" class="badge-t">1</text>
  <text x="1182" y="157" class="t mono" style="font-size:12px">resource_deployment.bicep</text>
  <text x="1162" y="177" class="s">az deployment group create (loads .env)</text>
  <text x="1162" y="195" class="s" style="fill:#1F2328">→ resources, roles, 25 Key Vault secrets</text>

  <rect x="1146" y="232" width="268" height="58" rx="10" class="box"/>
  <text x="1162" y="256" class="t mono" style="font-size:12px">config.yaml</text>
  <text x="1162" y="276" class="s">guardrails · profile TTL · NLP settings</text>

  <rect x="1146" y="302" width="268" height="58" rx="10" class="box"/>
  <text x="1162" y="326" class="t mono" style="font-size:12px">agents/*_config.yaml</text>
  <text x="1162" y="346" class="s">agent name · system prompt (one per agent)</text>

  <rect x="1146" y="398" width="268" height="76" rx="10" class="box"/>
  <circle cx="1164" cy="420" r="10" class="badge"/><text x="1164" y="424" class="badge-t">3</text>
  <text x="1182" y="425" class="t mono" style="font-size:12px">agents/*_deployment.py</text>
  <text x="1162" y="445" class="s">5 scripts · RaiPolicyManager · agent tools</text>
  <text x="1162" y="463" class="s" style="fill:#1F2328">→ RAI policy + new version of each agent</text>

  <rect x="1146" y="500" width="268" height="164" rx="10" class="box"/>
  <text x="1162" y="524" class="t">Local configuration</text>
  <text x="1162" y="542" class="xs">.env and launch.json are git-ignored</text>
  <text x="1162" y="566" class="s" style="fill:#1F2328">.env · read by the deployment only</text>
  <text x="1162" y="582" class="mono" style="font-size:10px">VISUAL_CROSSING_API_KEY</text>
  <text x="1162" y="598" class="mono" style="font-size:10px">TAVILY_API_KEY <tspan class="xs" style="font-family:'Segoe UI', Arial, sans-serif">→ stored in Key Vault</tspan></text>
  <text x="1162" y="622" class="s" style="fill:#1F2328">launch.json env · every script</text>
  <text x="1162" y="638" class="mono" style="font-size:10px">KEY_VAULT_URL</text>
  <text x="1162" y="654" class="mono" style="font-size:10px">SOURCE_FILE_PATH · USER_ROLE</text>

  <rect x="1146" y="684" width="268" height="62" rx="10" class="box"/>
  <text x="1162" y="708" class="t mono" style="font-size:12px">scripts/*.sh</text>
  <text x="1162" y="728" class="s">CLI steps: setup · deploy · delete &amp; purge</text>

  <rect x="1146" y="770" width="268" height="160" rx="10" class="box"/>
  <circle cx="1164" cy="792" r="10" class="badge"/><text x="1164" y="796" class="badge-t">2</text>
  <text x="1182" y="797" class="t mono" style="font-size:12px">rag_setup.py</text>
  <text x="1162" y="817" class="s">FoundryIQService</text>
  <text x="1162" y="844" class="mono" style="font-size:10.5px">1 upload_blob()</text>
  <text x="1162" y="862" class="mono" style="font-size:10.5px">2 create_blob_knowledge_source()</text>
  <text x="1162" y="880" class="mono" style="font-size:10.5px">3 wait_for_ingestion()</text>
  <text x="1162" y="898" class="mono" style="font-size:10.5px">4 create_knowledge_base()</text>

  <!-- Setup arrows -->
  <path d="M1146,168 H1090" class="setup" marker-end="url(#a-setup)"/>
  <path d="M1280,360 V398" class="setup" marker-end="url(#a-setup)"/>
  <path d="M1146,436 H1074" class="setup" marker-end="url(#a-setup)"/>
  <path d="M1146,808 H1074" class="setup" marker-end="url(#a-setup)"/>
  <path d="M1146,920 H1074" class="setup" marker-end="url(#a-setup)"/>
</svg>
